# xmcd CD database file
#
# Track frame offsets:
#	150
#	19110
#	37222
#	58963
#	79635
#	93125
#	112657
#	134704
#	152885
#	172135
#	197677
#	221544
#	243024
#	265390
#	284242
#
# Disc length: 3988 seconds
#
# Revision: 0
# Processed by: cddbd v1.5.2PL0 Copyright (c) Steve Scherf et al.
# Submitted via: CDex 1.79
#
DISCID=dd0f920f
DTITLE=Dave Koz - Collaborations: 25th Anniversary Collection
DYEAR=2015
DGENRE=Jazz
TTITLE0=Good Foot (with Jeff Lorber)
TTITLE1=(Your Love Keeps Lifting Me) Higher And Higher (with Kenny Lattimore and Rick Braun)
TTITLE2=When Will I Know For Sure (with Boney James)
TTITLE3=So Very Hard To Go (with Michael McDonald and Summer Horns)
TTITLE4=(I Love You) For Sentimental Reaons (with Rod Stewart)
TTITLE5=Let Me Count The Ways (with Stevie Nicks)
TTITLE6=This Guy's In Love With You ( with Herb Alpert)
TTITLE7=Linus And Lucy (with David Benoit)
TTITLE8=Can't Let You Go (The Sha La Song) (with Luther Vandross)
TTITLE9=All You Need Is Love (with Eric Benet, Johnny Mathis, Heather Headley, Richard Marx, Jonathon Butler, Maysa, Bebe Winans, Gloria Estefan and Stevie Wonder)
TTITLE10=Game Of Thrones Theme (The Smooth Version) (with Scott Bradlee's Postmodern Jukebox)
TTITLE11=Cryin' For Me (Wyman's Song) (with Toby Keith and Marcus Miller)
TTITLE12=Think Big (with Brian Culbertson and Keb 'Mo)
TTITLE13=Apartment 2G: I Hear Her Playing Music (with Barry Manilow)
TTITLE14=Let It Go
EXTD=YEAR: 2015
EXTT0=
EXTT1=
EXTT2=
EXTT3=
EXTT4=
EXTT5=
EXTT6=
EXTT7=
EXTT8=
EXTT9=
EXTT10=
EXTT11=
EXTT12=
EXTT13=
EXTT14=
PLAYORDER=
